<?xml version="1.0" standalone="no"?>
<!DOCTYPE svg PUBLIC "-//W3C//DTD SVG 20010904//EN"
 "http://www.w3.org/TR/2001/REC-SVG-20010904/DTD/svg10.dtd">
<svg version="1.0" xmlns="http://www.w3.org/2000/svg"
 width="746.000000pt" height="357.000000pt" viewBox="0 0 746.000000 357.000000"
 preserveAspectRatio="xMidYMid meet">
<metadata>
Created by potrace 1.11, written by Peter Selinger 2001-2013
</metadata>
<g transform="translate(0.000000,357.000000) scale(0.100000,-0.100000)"
fill="#000000" stroke="none">
<path d="M2145 2663 c-43 -11 -85 -69 -85 -119 0 -14 18 -59 39 -98 22 -39 46
-91 55 -116 14 -40 14 -46 0 -61 -9 -10 -14 -28 -12 -41 2 -18 10 -24 35 -26
40 -4 53 26 28 65 -22 33 -10 82 42 166 19 32 37 75 40 96 7 52 -19 105 -62
125 -34 16 -45 17 -80 9z m70 -17 c39 -16 68 -64 63 -104 -2 -22 -9 -28 -34
-30 -29 -3 -30 -1 -26 27 5 38 -27 59 -65 42 -21 -9 -24 -17 -21 -41 4 -27 2
-30 -23 -30 -35 0 -43 29 -23 80 10 25 27 44 47 54 39 19 40 19 82 2z"/>
</g>
</svg>
